# xmcd
#
# Track frame offsets: 
#        150
#        4282
#        27675
#        48418
#        62912
#        67493
#        89137
#        103538
#        119663
#        140293
#        163503
#        171081
#        187026
#        209530
#        230815
#        246048
#        265738
#        282984
#        306469
#
# Disc length: 4146 seconds
#
# Revision: 4
# Processed by: cddbd v1.5.2PL0 Copyright (c) Steve Scherf et al.
# Submitted via: ExactAudioCopyFreeDBPlugin 1.0
#
DISCID=31103013
DTITLE=Noreaga - N.O.R.E.
DYEAR=1998
DGENRE=Rap
TTITLE0=The Jump Off
TTITLE1=Banned From TV (feat. Nature, Big Punisher, Cam'Ron and Styles a
TTITLE1=nd Jadakiss from The Lox)
TTITLE2=I Love My Life (feat. Carl Thomas)
TTITLE3=N.O.R.E.
TTITLE4=Hed Interlude
TTITLE5=Hed (feat. Nature)
TTITLE6=It's Not A Game (feat. Maze and Musolini)
TTITLE7=Fiesta (feat. Kid Capri)
TTITLE8=40 Island (feat. Kool G Rap and Musolini)
TTITLE9=The Way We Live (feat. Chico DeBarge)
TTITLE10=Animal Thug Interlude
TTITLE11=The Change
TTITLE12=SuperThug
TTITLE13=Da Story (feat. Maze)
TTITLE14=Mathematics (Esta Loca)
TTITLE15=The Assignment (feat. Busta Rhymes, Spliff Star and Maze)
TTITLE16=Body In The Trunk (feat. Nas)
TTITLE17=One Love
TTITLE18=Outro
EXTD=ID3G:  15
EXTT0=
EXTT1=
EXTT2=
EXTT3=
EXTT4=
EXTT5=
EXTT6=
EXTT7=
EXTT8=
EXTT9=
EXTT10=
EXTT11=
EXTT12=
EXTT13=
EXTT14=
EXTT15=
EXTT16=
EXTT17=
EXTT18=
PLAYORDER=
